<svg width="16" height="16" viewBox="0 0 16 16" fill="none" xmlns="http://www.w3.org/2000/svg">
<path d="M5.775 8C5.175 8 4.675 7.775 4.275 7.325C3.875 6.875 3.71667 6.35 3.8 5.75L4.125 3.3C4.25833 2.35 4.69167 1.56233 5.425 0.937001C6.15833 0.311668 7.01667 -0.000665602 8 1.06496e-06C8.98333 1.06496e-06 9.84167 0.312668 10.575 0.938001C11.3083 1.56333 11.7417 2.35067 11.875 3.3L12.2 5.75C12.2833 6.35 12.125 6.875 11.725 7.325C11.325 7.775 10.825 8 10.225 8H5.775ZM5.775 6H10.225L9.9 3.6C9.83333 3.13333 9.621 2.75 9.263 2.45C8.905 2.15 8.484 2 8 2C7.51667 2 7.09567 2.15 6.737 2.45C6.37833 2.75 6.166 3.13333 6.1 3.6L5.775 6ZM0 16V13.2C0 12.6333 0.146 12.1123 0.438 11.637C0.73 11.1617 1.11733 10.7993 1.6 10.55C2.63333 10.0333 3.68333 9.64567 4.75 9.387C5.81667 9.12833 6.9 8.99933 8 9C9.1 9 10.1833 9.12933 11.25 9.388C12.3167 9.64667 13.3667 10.034 14.4 10.55C14.8833 10.8 15.271 11.1627 15.563 11.638C15.855 12.1133 16.0007 12.634 16 13.2V16H0ZM2 14H14V13.2C14 13.0167 13.954 12.85 13.862 12.7C13.77 12.55 13.6493 12.4333 13.5 12.35C12.6 11.9 11.6917 11.5627 10.775 11.338C9.85833 11.1133 8.93333 11.0007 8 11C7.06667 11 6.14167 11.1127 5.225 11.338C4.30833 11.5633 3.4 11.9007 2.5 12.35C2.35 12.4333 2.229 12.55 2.137 12.7C2.045 12.85 1.99933 13.0167 2 13.2V14Z" fill="black"/>
</svg>
