<svg width="10" height="10" viewBox="0 0 10 10" fill="none" xmlns="http://www.w3.org/2000/svg">
<path d="M0.499992 1.25C0.499992 1.6625 0.837492 2 1.24999 2H6.94249L0.282492 8.66C0.213056 8.72944 0.157976 8.81187 0.120397 8.90259C0.0828182 8.99332 0.0634766 9.09055 0.0634766 9.18875C0.0634766 9.28695 0.0828182 9.38419 0.120397 9.47491C0.157976 9.56563 0.213056 9.64806 0.282492 9.7175C0.351929 9.78694 0.434362 9.84202 0.525085 9.8796C0.615808 9.91717 0.713044 9.93652 0.811242 9.93652C0.90944 9.93652 1.00668 9.91717 1.0974 9.8796C1.18812 9.84202 1.27056 9.78694 1.33999 9.7175L7.99999 3.0575V8.75C7.99999 9.1625 8.33749 9.5 8.74999 9.5C9.16249 9.5 9.49999 9.1625 9.49999 8.75V1.25C9.49999 0.8375 9.16249 0.5 8.74999 0.5H1.24999C0.837492 0.5 0.499992 0.8375 0.499992 1.25Z" fill="black"/>
</svg>
